<?xml version="1.0" encoding="utf-8"?>
<!-- Generator: Adobe Illustrator 23.0.1, SVG Export Plug-In . SVG Version: 6.00 Build 0)  -->
<svg version="1.1" id="Layer_1" xmlns="http://www.w3.org/2000/svg" xmlns:xlink="http://www.w3.org/1999/xlink" x="0px" y="0px"
	 viewBox="0 0 1388.96 595.28" style="enable-background:new 0 0 1388.96 595.28;" xml:space="preserve">
<style type="text/css">
	.st0{fill:#00458C;}
	.st1{fill:#78A742;}
	.st2{fill:none;}
	.st3{fill:#7BAFDE;}
	.st4{fill:#0072BC;}
</style>
<g>
	<g>
		<path class="st0" d="M903.19,371.3c-41.9,0-75.99-34.09-75.99-75.99c0-41.9,34.09-75.98,75.99-75.98
			c41.9,0,75.98,34.09,75.98,75.98v16.16H867.71l15.76-32.32h60.28c-6.44-16.1-22.19-27.5-40.56-27.5
			c-24.08,0-43.67,19.59-43.67,43.66c0,24.08,19.59,43.67,43.67,43.67c8.14,0,16.08-2.25,22.95-6.51l17.02,27.48
			C931.17,367.37,917.35,371.3,903.19,371.3"/>
	</g>
	<polygon class="st0" points="809.13,133.43 809.13,369.46 776.81,369.46 776.81,133.42 	"/>
	<polygon class="st0" points="751.98,133.43 751.98,369.46 719.65,369.46 719.65,133.42 	"/>
	<path class="st0" d="M494.9,279.15h-51.8c-7.08,0-12.83-5.75-12.83-12.83c0-7.07,5.76-12.83,12.83-12.83h67.88l15.68-32.32H443.1
		c-24.9,0-45.16,20.25-45.16,45.16c0,24.9,20.26,45.15,45.16,45.15h51.8c7.07,0,12.83,5.76,12.83,12.83
		c0,7.08-5.76,12.83-12.83,12.83h-90.03v32.32h90.03c24.9,0,45.16-20.26,45.16-45.15C540.05,299.41,519.8,279.15,494.9,279.15"/>
	<path class="st0" d="M1170.44,279.15h-51.8c-7.07,0-12.83-5.75-12.83-12.83c0-7.07,5.76-12.83,12.83-12.83h67.88l15.67-32.32
		h-83.55c-24.9,0-45.15,20.25-45.15,45.16c0,24.9,20.26,45.15,45.15,45.15h51.8c7.08,0,12.83,5.76,12.83,12.83
		c0,7.08-5.76,12.83-12.83,12.83h-90.03v32.32h90.03c24.9,0,45.16-20.26,45.16-45.15C1215.6,299.41,1195.34,279.15,1170.44,279.15"
		/>
	<path class="st0" d="M1069.88,222.55h-28.01c-24.9,0-45.16,20.26-45.16,45.16v101.75h32.33V267.71c0-7.08,5.76-12.84,12.83-12.84
		h12.34L1069.88,222.55z"/>
	<path class="st0" d="M660.7,226.47c-37.87-18.13-83.43-2.07-101.56,35.8c-18.13,37.87-2.08,83.43,35.8,101.56
		c37.87,18.13,83.43,2.07,101.57-35.8C714.63,290.17,698.57,244.6,660.7,226.47z M667.29,314.05
		c-10.42,21.76-36.6,30.99-58.36,20.57c-21.76-10.42-30.99-36.6-20.57-58.36c10.42-21.76,36.6-30.99,58.36-20.57
		C668.47,266.11,677.7,292.29,667.29,314.05z"/>
	<path class="st1" d="M479.43,419.17c-8.59,0-15.58,6.99-15.58,15.58c0,8.59,6.99,15.58,15.58,15.58c8.59,0,15.58-6.99,15.58-15.58
		C495.01,426.15,488.02,419.17,479.43,419.17 M479.43,461.86c-14.95,0-27.11-12.16-27.11-27.12c0-14.95,12.16-27.12,27.11-27.12
		s27.11,12.17,27.11,27.12C506.54,449.7,494.38,461.86,479.43,461.86"/>
	<g>
		<path class="st1" d="M874.76,407.93c-14.78,0-26.81,12.03-26.81,26.81c0,14.78,12.03,26.81,26.81,26.81
			c14.78,0,26.81-12.03,26.81-26.81v-5.7h-27.18l-0.08,11.4h14.76c-2.27,5.68-7.83,9.7-14.31,9.7c-8.5,0-15.41-6.91-15.41-15.4
			c0-8.5,6.91-15.41,15.41-15.41c2.87,0,5.67,0.79,8.1,2.3l6.01-9.7C884.64,409.32,879.76,407.93,874.76,407.93"/>
	</g>
	<rect x="769.96" y="408.83" class="st1" width="11.41" height="51.83"/>
	<polygon class="st1" points="553.58,408.83 553.58,448.75 526.74,408.83 515.34,408.83 515.34,408.83 515.13,408.83 515.13,460.66 
		526.53,460.66 526.53,425.48 550.19,460.66 553.58,460.66 561.59,460.66 564.99,460.66 564.99,408.83 	"/>
	<polygon class="st1" points="828.73,408.83 828.73,448.75 801.89,408.83 790.49,408.83 790.49,408.83 790.28,408.83 790.28,460.66 
		801.69,460.66 801.69,425.49 825.34,460.66 828.73,460.66 836.74,460.66 840.14,460.66 840.14,408.83 	"/>
	<path class="st1" d="M608.15,429.04h-18.28c-2.5,0-4.53-2.03-4.53-4.53c0-2.5,2.03-4.53,4.53-4.53h23.95l5.53-11.4h-29.48
		c-8.79,0-15.93,7.15-15.93,15.93c0,8.79,7.15,15.93,15.93,15.93h18.28c2.5,0,4.53,2.03,4.53,4.53c0,2.5-2.03,4.53-4.53,4.53h-31.77
		v11.4h31.77c8.79,0,15.93-7.15,15.93-15.93C624.08,436.19,616.94,429.04,608.15,429.04"/>
	<path class="st1" d="M722.08,460.66h-19.24c-8.78,0-15.93-7.15-15.93-15.93v-35.9h11.41v35.9c0,2.5,2.03,4.53,4.53,4.53h19.34
		L722.08,460.66z"/>
	<polygon class="st1" points="764.31,408.83 717.95,408.83 717.95,420.23 735.19,420.23 735.19,460.66 746.6,460.66 746.6,420.23 
		758.78,420.23 	"/>
	<path class="st1" d="M666.19,408.83v35.9c0,2.5-2.03,4.53-4.53,4.53h-6.72h-0.8h-6.72c-2.5,0-4.53-2.03-4.53-4.53v-35.9h-11.41
		v35.9c0,8.79,7.15,15.93,15.93,15.93h6.72h0.8h6.72c8.78,0,15.93-7.15,15.93-15.93v-35.9H666.19z"/>
	<path class="st1" d="M426.57,447.63c-0.25-0.16-0.49-0.32-0.72-0.49c-0.18-0.13-0.35-0.28-0.53-0.42
		c-0.22-0.18-0.44-0.36-0.65-0.55c-0.17-0.16-0.34-0.33-0.51-0.49c-0.19-0.19-0.39-0.38-0.57-0.59c-0.16-0.18-0.32-0.38-0.48-0.57
		c-0.17-0.21-0.34-0.41-0.49-0.62c-0.15-0.2-0.28-0.41-0.42-0.61c-0.15-0.23-0.3-0.45-0.44-0.68c-0.1-0.17-0.19-0.35-0.29-0.53
		c-0.15-0.29-0.31-0.57-0.45-0.86c-0.03-0.08-0.06-0.15-0.09-0.23c-0.77-1.75-1.22-3.62-1.31-5.53c-0.01-0.24,0-0.48,0-0.72
		c0-0.24-0.01-0.48,0-0.72c0.09-1.91,0.54-3.79,1.32-5.54c0.03-0.07,0.06-0.14,0.09-0.21c0.14-0.3,0.3-0.59,0.45-0.87
		c0.09-0.17,0.18-0.35,0.28-0.52c0.14-0.24,0.3-0.46,0.45-0.69c0.14-0.21,0.27-0.41,0.41-0.61c0.16-0.21,0.33-0.42,0.5-0.62
		c0.16-0.19,0.31-0.38,0.47-0.56c0.18-0.2,0.38-0.39,0.57-0.58c0.17-0.17,0.33-0.34,0.51-0.49c0.21-0.19,0.43-0.37,0.65-0.54
		c0.18-0.14,0.35-0.29,0.54-0.43c0.23-0.17,0.47-0.32,0.71-0.48c4.83-3.17,11.25-3.51,16.51-0.31l5.95-9.76
		c-8.86-5.39-19.63-5.03-27.94,0.01l-0.01-0.01c-0.16,0.1-0.31,0.2-0.46,0.3c-0.12,0.08-0.24,0.15-0.36,0.23
		c-0.24,0.16-0.47,0.32-0.7,0.48c-0.14,0.1-0.28,0.2-0.42,0.3c-0.21,0.16-0.42,0.31-0.63,0.47c-0.15,0.12-0.29,0.23-0.44,0.35
		c-0.2,0.16-0.39,0.32-0.58,0.49c-0.15,0.13-0.29,0.25-0.43,0.38c-0.19,0.17-0.37,0.34-0.55,0.51c-0.14,0.13-0.28,0.27-0.41,0.4
		c-0.18,0.18-0.35,0.36-0.53,0.54c-0.13,0.14-0.26,0.28-0.39,0.42c-0.17,0.19-0.33,0.37-0.5,0.56c-0.13,0.15-0.25,0.3-0.38,0.45
		c-0.16,0.19-0.31,0.38-0.46,0.58c-0.13,0.16-0.25,0.32-0.37,0.49c-0.14,0.19-0.28,0.38-0.41,0.57c-0.13,0.18-0.26,0.37-0.38,0.56
		c-0.11,0.17-0.22,0.34-0.33,0.51c-0.08,0.13-0.17,0.25-0.24,0.38c-0.06,0.1-0.12,0.21-0.18,0.31c-0.07,0.12-0.14,0.24-0.2,0.35
		c-0.17,0.3-0.33,0.6-0.49,0.89c-0.02,0.03-0.03,0.06-0.05,0.1c-2.03,3.92-3,8.14-2.99,12.32c-0.01,4.18,0.97,8.4,2.99,12.32
		c0.02,0.03,0.03,0.06,0.05,0.09c0.16,0.3,0.32,0.6,0.49,0.9c0.07,0.12,0.13,0.23,0.2,0.35c0.06,0.1,0.12,0.21,0.18,0.31
		c0.08,0.13,0.17,0.26,0.25,0.38c0.11,0.17,0.21,0.34,0.32,0.5c0.13,0.19,0.26,0.38,0.39,0.57c0.13,0.19,0.26,0.37,0.4,0.55
		c0.13,0.17,0.25,0.34,0.38,0.5c0.15,0.19,0.3,0.38,0.45,0.57c0.13,0.15,0.26,0.31,0.39,0.46c0.16,0.19,0.32,0.37,0.49,0.55
		c0.13,0.15,0.27,0.29,0.41,0.44c0.17,0.18,0.34,0.35,0.51,0.53c0.14,0.14,0.28,0.28,0.43,0.42c0.18,0.17,0.36,0.33,0.54,0.5
		c0.15,0.13,0.3,0.27,0.45,0.4c0.18,0.16,0.37,0.32,0.56,0.47c0.15,0.12,0.3,0.25,0.46,0.37c0.2,0.15,0.4,0.31,0.61,0.46
		c0.15,0.11,0.3,0.21,0.45,0.32c0.22,0.16,0.45,0.31,0.68,0.46c0.13,0.08,0.25,0.16,0.38,0.24c0.15,0.1,0.3,0.2,0.45,0.29l0.01-0.01
		c8.31,5.04,19.08,5.4,27.94,0.01l-5.95-9.76C437.81,451.13,431.4,450.79,426.57,447.63z"/>
	<path class="st1" d="M216.69,336.98c-5.98,0-10.85-4.87-10.85-10.85V176.75c0-5.98,4.87-10.85,10.85-10.85h26.59v-32.48h-26.59
		c-23.93,0-43.33,19.4-43.33,43.33v149.39c0,23.93,19.4,43.33,43.33,43.33h26.59v-32.48H216.69z"/>
	<g>
		<polygon class="st2" points="300.27,251.56 300.27,251.48 300.19,251.52 		"/>
		<polygon class="st3" points="256.28,230.22 256.28,230.22 256.28,230.22 		"/>
		<polygon class="st3" points="300.19,251.52 256.28,272.76 300.27,294.1 300.27,251.56 		"/>
		<polygon class="st3" points="355.92,321.09 355.92,278.55 332.75,267.32 332.75,309.85 		"/>
		<path class="st4" d="M332.75,176.75c0-23.93-19.4-43.33-43.33-43.33h-26.59v32.48h26.59c5.98,0,10.85,4.87,10.85,10.85v32.19
			l32.48-15.71V176.75z"/>
		<path class="st4" d="M300.27,251.48v0.08v42.54v32.04c0,5.98-4.86,10.85-10.85,10.85h-26.59v32.48h26.59
			c23.93,0,43.33-19.4,43.33-43.33v-16.28v-42.54v-31.55L300.27,251.48z"/>
		<polygon class="st0" points="332.75,193.23 300.27,208.94 256.28,230.22 256.28,230.22 256.28,272.76 300.19,251.52 
			300.27,251.48 332.75,235.77 372.63,216.47 372.63,173.93 		"/>
	</g>
</g>
</svg>
